<svg width="198" height="61" viewBox="0 0 198 61" fill="none" xmlns="http://www.w3.org/2000/svg">
<path d="M12.7512 28.6406V6H18.7102V33H13.3664L12.7512 28.6406ZM1.0793 23.7188V23.3496C1.0793 21.9082 1.2375 20.5957 1.55391 19.4121C1.87032 18.2168 2.33907 17.1914 2.96016 16.3359C3.58125 15.4688 4.35469 14.8008 5.28047 14.332C6.20625 13.8633 7.27266 13.6289 8.47969 13.6289C9.55782 13.6289 10.5012 13.8809 11.3098 14.3848C12.1184 14.877 12.8098 15.5684 13.384 16.459C13.9582 17.3496 14.427 18.3926 14.7902 19.5879C15.1535 20.7715 15.4289 22.0488 15.6164 23.4199V23.8594C15.4289 25.1484 15.1535 26.3672 14.7902 27.5156C14.427 28.6523 13.9582 29.6602 13.384 30.5391C12.8098 31.418 12.1125 32.1094 11.2922 32.6133C10.4836 33.1055 9.53438 33.3516 8.44453 33.3516C7.2375 33.3516 6.1711 33.1113 5.24532 32.6309C4.33125 32.1504 3.56367 31.4766 2.94258 30.6094C2.33321 29.7422 1.87032 28.7227 1.55391 27.5508C1.2375 26.3789 1.0793 25.1016 1.0793 23.7188ZM7.00313 23.3496V23.7188C7.00313 24.4336 7.05 25.0957 7.14375 25.7051C7.2375 26.3145 7.39571 26.8535 7.61836 27.3223C7.85274 27.7793 8.15742 28.1367 8.53242 28.3945C8.91914 28.6523 9.39375 28.7812 9.95625 28.7812C10.718 28.7812 11.3449 28.5996 11.8371 28.2363C12.341 27.873 12.7102 27.3574 12.9445 26.6895C13.1906 26.0215 13.2961 25.2363 13.2609 24.334V22.9453C13.2844 22.1719 13.2316 21.4922 13.1027 20.9062C12.9738 20.3086 12.7688 19.8105 12.4875 19.4121C12.218 19.0137 11.8723 18.7148 11.4504 18.5156C11.0402 18.3047 10.5539 18.1992 9.99141 18.1992C9.44063 18.1992 8.97188 18.3281 8.58516 18.5859C8.21016 18.8438 7.90547 19.207 7.6711 19.6758C7.43672 20.1328 7.2668 20.6777 7.16133 21.3105C7.05586 21.9316 7.00313 22.6113 7.00313 23.3496ZM20.0693 23.6836V23.3145C20.0693 21.9199 20.2685 20.6367 20.667 19.4648C21.0654 18.2812 21.6513 17.2559 22.4248 16.3887C23.1982 15.5215 24.1533 14.8477 25.29 14.3672C26.4267 13.875 27.7392 13.6289 29.2275 13.6289C30.7275 13.6289 32.0459 13.875 33.1826 14.3672C34.331 14.8477 35.292 15.5215 36.0654 16.3887C36.8388 17.2559 37.4248 18.2812 37.8232 19.4648C38.2216 20.6367 38.4209 21.9199 38.4209 23.3145V23.6836C38.4209 25.0664 38.2216 26.3496 37.8232 27.5332C37.4248 28.7051 36.8388 29.7305 36.0654 30.6094C35.292 31.4766 34.3369 32.1504 33.2002 32.6309C32.0634 33.1113 30.7509 33.3516 29.2627 33.3516C27.7744 33.3516 26.456 33.1113 25.3076 32.6309C24.1591 32.1504 23.1982 31.4766 22.4248 30.6094C21.6513 29.7305 21.0654 28.7051 20.667 27.5332C20.2685 26.3496 20.0693 25.0664 20.0693 23.6836ZM25.9931 23.3145V23.6836C25.9931 24.3984 26.0459 25.0664 26.1513 25.6875C26.2568 26.3086 26.4326 26.8535 26.6787 27.3223C26.9248 27.7793 27.2588 28.1367 27.6806 28.3945C28.1025 28.6523 28.6298 28.7812 29.2627 28.7812C29.8838 28.7812 30.3994 28.6523 30.8095 28.3945C31.2314 28.1367 31.5654 27.7793 31.8115 27.3223C32.0576 26.8535 32.2334 26.3086 32.3388 25.6875C32.4443 25.0664 32.497 24.3984 32.497 23.6836V23.3145C32.497 22.623 32.4443 21.9727 32.3388 21.3633C32.2334 20.7422 32.0576 20.1973 31.8115 19.7285C31.5654 19.248 31.2314 18.873 30.8095 18.6035C30.3877 18.334 29.8603 18.1992 29.2275 18.1992C28.6064 18.1992 28.0849 18.334 27.663 18.6035C27.2529 18.873 26.9248 19.248 26.6787 19.7285C26.4326 20.1973 26.2568 20.7422 26.1513 21.3633C26.0459 21.9727 25.9931 22.623 25.9931 23.3145ZM49.8171 13.9805V18.0938H38.3562V13.9805H49.8171ZM40.7644 9.25195H46.6882V26.7949C46.6882 27.2988 46.7468 27.6914 46.864 27.9727C46.9812 28.2422 47.1804 28.4355 47.4616 28.5527C47.7546 28.6582 48.1413 28.7109 48.6218 28.7109C48.9616 28.7109 49.2429 28.7051 49.4655 28.6934C49.6882 28.6699 49.8991 28.6406 50.0984 28.6055V32.8418C49.5945 33.0059 49.0671 33.1289 48.5163 33.2109C47.9655 33.3047 47.3796 33.3516 46.7585 33.3516C45.4929 33.3516 44.4089 33.1523 43.5066 32.7539C42.6159 32.3555 41.9363 31.7285 41.4675 30.873C40.9988 30.0176 40.7644 28.9043 40.7644 27.5332V9.25195ZM51.2993 30.2227C51.2993 29.3789 51.604 28.6758 52.2134 28.1133C52.8227 27.5391 53.6079 27.252 54.5688 27.252C55.5415 27.252 56.3266 27.5391 56.9243 28.1133C57.5337 28.6758 57.8384 29.3789 57.8384 30.2227C57.8384 31.0664 57.5337 31.7754 56.9243 32.3496C56.3266 32.9121 55.5415 33.1934 54.5688 33.1934C53.6079 33.1934 52.8227 32.9121 52.2134 32.3496C51.604 31.7754 51.2993 31.0664 51.2993 30.2227Z" fill="#000AFF"/>
<path d="M70.4299 28.2188V20.3789C70.4299 19.8398 70.3538 19.377 70.2014 18.9902C70.0491 18.6035 69.8088 18.3047 69.4807 18.0938C69.1526 17.8711 68.7131 17.7598 68.1623 17.7598C67.717 17.7598 67.3362 17.8359 67.0198 17.9883C66.7034 18.1406 66.4631 18.3691 66.2991 18.6738C66.135 18.9785 66.053 19.3652 66.053 19.834H60.1291C60.1291 18.9551 60.3225 18.1406 60.7092 17.3906C61.1077 16.6289 61.6702 15.9668 62.3967 15.4043C63.135 14.8418 64.0139 14.4082 65.0334 14.1035C66.0647 13.7871 67.2131 13.6289 68.4788 13.6289C69.9905 13.6289 71.3381 13.8809 72.5217 14.3848C73.717 14.8887 74.6604 15.6445 75.3518 16.6523C76.0432 17.6484 76.3889 18.9023 76.3889 20.4141V28.2012C76.3889 29.4434 76.4592 30.3867 76.5998 31.0312C76.7405 31.6641 76.9397 32.2207 77.1975 32.7012V33H71.2561C70.9748 32.4141 70.7639 31.6992 70.6233 30.8555C70.4944 30 70.4299 29.1211 70.4299 28.2188ZM71.1506 21.3809L71.1858 24.5449H68.5666C68.0159 24.5449 67.5471 24.6211 67.1604 24.7734C66.7854 24.9258 66.4807 25.1367 66.2463 25.4062C66.0237 25.6641 65.8596 25.957 65.7541 26.2852C65.6604 26.6133 65.6135 26.959 65.6135 27.3223C65.6135 27.6738 65.6955 27.9902 65.8596 28.2715C66.0354 28.541 66.2698 28.752 66.5627 28.9043C66.8557 29.0566 67.1838 29.1328 67.5471 29.1328C68.2034 29.1328 68.76 29.0098 69.217 28.7637C69.6858 28.5059 70.0432 28.1953 70.2893 27.832C70.5354 27.4688 70.6584 27.1289 70.6584 26.8125L71.9592 29.2383C71.7248 29.707 71.4553 30.1816 71.1506 30.6621C70.8577 31.1426 70.4885 31.5879 70.0432 31.998C69.6096 32.3965 69.0764 32.7246 68.4436 32.9824C67.8108 33.2285 67.0432 33.3516 66.1409 33.3516C64.969 33.3516 63.8909 33.1113 62.9065 32.6309C61.9338 32.1504 61.1545 31.4824 60.5686 30.627C59.9827 29.7598 59.6897 28.7637 59.6897 27.6387C59.6897 26.6543 59.8655 25.7754 60.217 25.002C60.5803 24.2285 61.1252 23.5723 61.8518 23.0332C62.5784 22.4941 63.5041 22.084 64.6291 21.8027C65.7541 21.5215 67.0784 21.3809 68.6018 21.3809H71.1506ZM86.4492 28.7812C87 28.7812 87.4688 28.6816 87.8555 28.4824C88.2539 28.2715 88.5527 27.9785 88.752 27.6035C88.9629 27.2168 89.0625 26.7539 89.0508 26.2148H94.623C94.6348 27.6445 94.2832 28.8984 93.5684 29.9766C92.8652 31.043 91.9043 31.875 90.6855 32.4727C89.4785 33.0586 88.1133 33.3516 86.5898 33.3516C85.1016 33.3516 83.8008 33.1113 82.6875 32.6309C81.5742 32.1387 80.6426 31.459 79.8926 30.5918C79.1543 29.7129 78.5977 28.6875 78.2227 27.5156C77.8594 26.3438 77.6777 25.0723 77.6777 23.7012V23.2969C77.6777 21.9258 77.8594 20.6543 78.2227 19.4824C78.5977 18.2988 79.1543 17.2734 79.8926 16.4062C80.6426 15.5273 81.5684 14.8477 82.6699 14.3672C83.7832 13.875 85.0781 13.6289 86.5547 13.6289C88.1367 13.6289 89.5312 13.9277 90.7383 14.5254C91.957 15.123 92.9121 15.9902 93.6035 17.127C94.2949 18.2637 94.6348 19.6406 94.623 21.2578H89.0508C89.0625 20.6836 88.9746 20.168 88.7871 19.7109C88.5996 19.2539 88.3066 18.8906 87.9082 18.6211C87.5215 18.3398 87.0234 18.1992 86.4141 18.1992C85.8047 18.1992 85.3125 18.334 84.9375 18.6035C84.5625 18.873 84.2754 19.248 84.0762 19.7285C83.8887 20.1973 83.7598 20.7363 83.6895 21.3457C83.6309 21.9551 83.6016 22.6055 83.6016 23.2969V23.7012C83.6016 24.4043 83.6309 25.0664 83.6895 25.6875C83.7598 26.2969 83.8945 26.8359 84.0938 27.3047C84.293 27.7617 84.5801 28.125 84.9551 28.3945C85.3301 28.6523 85.8281 28.7812 86.4492 28.7812ZM105.773 28.2188V20.3789C105.773 19.8398 105.697 19.377 105.545 18.9902C105.392 18.6035 105.152 18.3047 104.824 18.0938C104.496 17.8711 104.056 17.7598 103.506 17.7598C103.06 17.7598 102.679 17.8359 102.363 17.9883C102.047 18.1406 101.806 18.3691 101.642 18.6738C101.478 18.9785 101.396 19.3652 101.396 19.834H95.4724C95.4724 18.9551 95.6658 18.1406 96.0525 17.3906C96.4509 16.6289 97.0134 15.9668 97.74 15.4043C98.4783 14.8418 99.3572 14.4082 100.377 14.1035C101.408 13.7871 102.556 13.6289 103.822 13.6289C105.334 13.6289 106.681 13.8809 107.865 14.3848C109.06 14.8887 110.004 15.6445 110.695 16.6523C111.386 17.6484 111.732 18.9023 111.732 20.4141V28.2012C111.732 29.4434 111.803 30.3867 111.943 31.0312C112.084 31.6641 112.283 32.2207 112.541 32.7012V33H106.599C106.318 32.4141 106.107 31.6992 105.967 30.8555C105.838 30 105.773 29.1211 105.773 28.2188ZM106.494 21.3809L106.529 24.5449H103.91C103.359 24.5449 102.89 24.6211 102.504 24.7734C102.129 24.9258 101.824 25.1367 101.59 25.4062C101.367 25.6641 101.203 25.957 101.097 26.2852C101.004 26.6133 100.957 26.959 100.957 27.3223C100.957 27.6738 101.039 27.9902 101.203 28.2715C101.379 28.541 101.613 28.752 101.906 28.9043C102.199 29.0566 102.527 29.1328 102.89 29.1328C103.547 29.1328 104.103 29.0098 104.56 28.7637C105.029 28.5059 105.386 28.1953 105.633 27.832C105.879 27.4688 106.002 27.1289 106.002 26.8125L107.303 29.2383C107.068 29.707 106.799 30.1816 106.494 30.6621C106.201 31.1426 105.832 31.5879 105.386 31.998C104.953 32.3965 104.42 32.7246 103.787 32.9824C103.154 33.2285 102.386 33.3516 101.484 33.3516C100.312 33.3516 99.2341 33.1113 98.2498 32.6309C97.2771 32.1504 96.4978 31.4824 95.9119 30.627C95.3259 29.7598 95.033 28.7637 95.033 27.6387C95.033 26.6543 95.2088 25.7754 95.5603 25.002C95.9236 24.2285 96.4685 23.5723 97.1951 23.0332C97.9216 22.4941 98.8474 22.084 99.9724 21.8027C101.097 21.5215 102.422 21.3809 103.945 21.3809H106.494ZM124.693 28.6406V6H130.652V33H125.308L124.693 28.6406ZM113.021 23.7188V23.3496C113.021 21.9082 113.179 20.5957 113.496 19.4121C113.812 18.2168 114.281 17.1914 114.902 16.3359C115.523 15.4688 116.296 14.8008 117.222 14.332C118.148 13.8633 119.214 13.6289 120.421 13.6289C121.5 13.6289 122.443 13.8809 123.251 14.3848C124.06 14.877 124.751 15.5684 125.326 16.459C125.9 17.3496 126.369 18.3926 126.732 19.5879C127.095 20.7715 127.371 22.0488 127.558 23.4199V23.8594C127.371 25.1484 127.095 26.3672 126.732 27.5156C126.369 28.6523 125.9 29.6602 125.326 30.5391C124.751 31.418 124.054 32.1094 123.234 32.6133C122.425 33.1055 121.476 33.3516 120.386 33.3516C119.179 33.3516 118.113 33.1113 117.187 32.6309C116.273 32.1504 115.505 31.4766 114.884 30.6094C114.275 29.7422 113.812 28.7227 113.496 27.5508C113.179 26.3789 113.021 25.1016 113.021 23.7188ZM118.945 23.3496V23.7188C118.945 24.4336 118.992 25.0957 119.085 25.7051C119.179 26.3145 119.337 26.8535 119.56 27.3223C119.794 27.7793 120.099 28.1367 120.474 28.3945C120.861 28.6523 121.335 28.7812 121.898 28.7812C122.66 28.7812 123.287 28.5996 123.779 28.2363C124.283 27.873 124.652 27.3574 124.886 26.6895C125.132 26.0215 125.238 25.2363 125.203 24.334V22.9453C125.226 22.1719 125.173 21.4922 125.044 20.9062C124.916 20.3086 124.71 19.8105 124.429 19.4121C124.16 19.0137 123.814 18.7148 123.392 18.5156C122.982 18.3047 122.496 18.1992 121.933 18.1992C121.382 18.1992 120.914 18.3281 120.527 18.5859C120.152 18.8438 119.847 19.207 119.613 19.6758C119.378 20.1328 119.209 20.6777 119.103 21.3105C118.998 21.9316 118.945 22.6113 118.945 23.3496ZM141.96 33.3516C140.413 33.3516 139.031 33.1113 137.812 32.6309C136.593 32.1387 135.562 31.4648 134.718 30.6094C133.886 29.7539 133.247 28.7695 132.802 27.6562C132.368 26.543 132.152 25.3652 132.152 24.123V23.4551C132.152 22.0605 132.345 20.7715 132.732 19.5879C133.118 18.3926 133.693 17.3496 134.454 16.459C135.216 15.5684 136.171 14.877 137.32 14.3848C138.468 13.8809 139.804 13.6289 141.327 13.6289C142.675 13.6289 143.882 13.8457 144.949 14.2793C146.015 14.7129 146.917 15.334 147.656 16.1426C148.406 16.9512 148.974 17.9297 149.361 19.0781C149.759 20.2266 149.958 21.5156 149.958 22.9453V25.3535H134.419V21.6445H144.175V21.1875C144.187 20.5547 144.075 20.0156 143.841 19.5703C143.618 19.125 143.29 18.7852 142.857 18.5508C142.423 18.3164 141.896 18.1992 141.275 18.1992C140.63 18.1992 140.097 18.3398 139.675 18.6211C139.265 18.9023 138.943 19.2891 138.708 19.7812C138.486 20.2617 138.327 20.8184 138.234 21.4512C138.14 22.084 138.093 22.752 138.093 23.4551V24.123C138.093 24.8262 138.187 25.4648 138.374 26.0391C138.574 26.6133 138.855 27.1055 139.218 27.5156C139.593 27.9141 140.038 28.2246 140.554 28.4473C141.081 28.6699 141.679 28.7812 142.347 28.7812C143.156 28.7812 143.952 28.6289 144.738 28.3242C145.523 28.0195 146.197 27.5156 146.759 26.8125L149.449 30.0117C149.062 30.5625 148.511 31.0957 147.796 31.6113C147.093 32.127 146.249 32.5488 145.265 32.877C144.281 33.1934 143.179 33.3516 141.96 33.3516ZM157.083 18.0059V33H151.159V13.9805H156.714L157.083 18.0059ZM156.362 22.8398L155.009 22.875C155.009 21.5391 155.167 20.3086 155.483 19.1836C155.8 18.0586 156.269 17.0801 156.89 16.248C157.511 15.416 158.273 14.7715 159.175 14.3145C160.089 13.8574 161.144 13.6289 162.339 13.6289C163.171 13.6289 163.927 13.7578 164.606 14.0156C165.286 14.2617 165.872 14.6543 166.364 15.1934C166.856 15.7207 167.231 16.4121 167.489 17.2676C167.759 18.1113 167.894 19.125 167.894 20.3086V33H161.97V21.0645C161.97 20.2559 161.876 19.6465 161.689 19.2363C161.513 18.8262 161.255 18.5508 160.915 18.4102C160.575 18.2695 160.159 18.1992 159.667 18.1992C159.151 18.1992 158.689 18.3164 158.278 18.5508C157.868 18.7852 157.517 19.1133 157.224 19.5352C156.942 19.9453 156.726 20.4316 156.573 20.9941C156.433 21.5566 156.362 22.1719 156.362 22.8398ZM167.226 22.8398L165.573 22.875C165.573 21.5391 165.72 20.3086 166.013 19.1836C166.317 18.0586 166.769 17.0801 167.366 16.248C167.976 15.416 168.731 14.7715 169.634 14.3145C170.536 13.8574 171.585 13.6289 172.78 13.6289C173.648 13.6289 174.444 13.7578 175.171 14.0156C175.898 14.2734 176.524 14.6895 177.052 15.2637C177.579 15.8379 177.989 16.5996 178.282 17.5488C178.575 18.4863 178.722 19.6465 178.722 21.0293V33H172.78V21.0293C172.78 20.2441 172.687 19.6523 172.499 19.2539C172.323 18.8438 172.065 18.5684 171.726 18.4277C171.386 18.2754 170.981 18.1992 170.513 18.1992C169.95 18.1992 169.464 18.3164 169.054 18.5508C168.644 18.7852 168.298 19.1133 168.017 19.5352C167.747 19.9453 167.548 20.4316 167.419 20.9941C167.29 21.5566 167.226 22.1719 167.226 22.8398ZM186.69 30.7676L191.612 13.9805H197.975L190.329 35.8301C190.165 36.3105 189.948 36.8262 189.679 37.377C189.409 37.9395 189.04 38.4727 188.571 38.9766C188.102 39.4805 187.499 39.8906 186.761 40.207C186.034 40.5234 185.132 40.6816 184.054 40.6816C183.479 40.6816 183.057 40.6523 182.788 40.5938C182.53 40.5469 182.132 40.459 181.593 40.3301V36.0938C181.745 36.0938 181.874 36.0938 181.979 36.0938C182.096 36.0938 182.225 36.0938 182.366 36.0938C182.999 36.0938 183.503 36.0293 183.878 35.9004C184.264 35.7715 184.557 35.584 184.757 35.3379C184.968 35.0918 185.132 34.793 185.249 34.4414L186.69 30.7676ZM185.442 13.9805L189.186 27.2871L189.837 33.5625H185.864L179.096 13.9805H185.442Z" fill="black"/>
<path d="M7.54219 54.0703C7.54219 53.8359 7.50573 53.6276 7.43281 53.4453C7.3651 53.263 7.24271 53.0964 7.06562 52.9453C6.88854 52.7943 6.63854 52.6484 6.31562 52.5078C5.99792 52.362 5.59167 52.2135 5.09687 52.0625C4.55521 51.8958 4.05521 51.7109 3.59687 51.5078C3.14375 51.2995 2.74792 51.0599 2.40937 50.7891C2.07083 50.513 1.80781 50.1979 1.62031 49.8438C1.43281 49.4844 1.33906 49.0703 1.33906 48.6016C1.33906 48.138 1.43542 47.7161 1.62812 47.3359C1.82604 46.9557 2.10469 46.6276 2.46406 46.3516C2.82865 46.0703 3.25833 45.8542 3.75312 45.7031C4.24792 45.5469 4.79479 45.4688 5.39375 45.4688C6.2375 45.4688 6.96406 45.625 7.57344 45.9375C8.18802 46.25 8.65937 46.6693 8.9875 47.1953C9.32083 47.7214 9.4875 48.3021 9.4875 48.9375H7.54219C7.54219 48.5625 7.46146 48.2318 7.3 47.9453C7.14375 47.6536 6.90417 47.4245 6.58125 47.2578C6.26354 47.0911 5.8599 47.0078 5.37031 47.0078C4.90677 47.0078 4.52135 47.0781 4.21406 47.2188C3.90677 47.3594 3.6776 47.5495 3.52656 47.7891C3.37552 48.0286 3.3 48.2995 3.3 48.6016C3.3 48.8151 3.34948 49.0104 3.44844 49.1875C3.5474 49.3594 3.69844 49.5208 3.90156 49.6719C4.10469 49.8177 4.3599 49.9557 4.66719 50.0859C4.97448 50.2161 5.33646 50.3411 5.75312 50.4609C6.38333 50.6484 6.93281 50.8568 7.40156 51.0859C7.87031 51.3099 8.26094 51.5651 8.57344 51.8516C8.88594 52.138 9.12031 52.4635 9.27656 52.8281C9.43281 53.1875 9.51094 53.5964 9.51094 54.0547C9.51094 54.5339 9.41458 54.9661 9.22187 55.3516C9.02917 55.7318 8.75312 56.0573 8.39375 56.3281C8.03958 56.5938 7.6125 56.7995 7.1125 56.9453C6.61771 57.0859 6.06562 57.1562 5.45625 57.1562C4.90937 57.1562 4.37031 57.0833 3.83906 56.9375C3.31302 56.7917 2.83385 56.5703 2.40156 56.2734C1.96927 55.9714 1.62552 55.5964 1.37031 55.1484C1.1151 54.6953 0.987499 54.1667 0.987499 53.5625H2.94844C2.94844 53.9323 3.01094 54.2474 3.13594 54.5078C3.26615 54.7682 3.44583 54.9818 3.675 55.1484C3.90417 55.3099 4.16979 55.4297 4.47187 55.5078C4.77917 55.5859 5.10729 55.625 5.45625 55.625C5.91458 55.625 6.2974 55.5599 6.60469 55.4297C6.91719 55.2995 7.15156 55.1172 7.30781 54.8828C7.46406 54.6484 7.54219 54.3776 7.54219 54.0703ZM12.5134 48.5469V57H10.6228V48.5469H12.5134ZM10.4978 46.3281C10.4978 46.0417 10.5916 45.8047 10.7791 45.6172C10.9718 45.4245 11.2374 45.3281 11.5759 45.3281C11.9093 45.3281 12.1723 45.4245 12.365 45.6172C12.5577 45.8047 12.6541 46.0417 12.6541 46.3281C12.6541 46.6094 12.5577 46.8438 12.365 47.0312C12.1723 47.2188 11.9093 47.3125 11.5759 47.3125C11.2374 47.3125 10.9718 47.2188 10.7791 47.0312C10.5916 46.8438 10.4978 46.6094 10.4978 46.3281ZM15.8987 50.2656V57H14.0159V48.5469H15.7894L15.8987 50.2656ZM15.5941 52.4609L14.9534 52.4531C14.9534 51.8698 15.0264 51.3307 15.1722 50.8359C15.318 50.3411 15.5316 49.9115 15.8128 49.5469C16.0941 49.1771 16.443 48.8932 16.8597 48.6953C17.2816 48.4922 17.7685 48.3906 18.3206 48.3906C18.706 48.3906 19.0576 48.4479 19.3753 48.5625C19.6982 48.6719 19.9769 48.8464 20.2112 49.0859C20.4508 49.3255 20.6331 49.6328 20.7581 50.0078C20.8883 50.3828 20.9534 50.8359 20.9534 51.3672V57H19.0706V51.5312C19.0706 51.1198 19.0081 50.7969 18.8831 50.5625C18.7633 50.3281 18.5889 50.1615 18.3597 50.0625C18.1357 49.9583 17.8675 49.9062 17.555 49.9062C17.2008 49.9062 16.8987 49.974 16.6487 50.1094C16.404 50.2448 16.2034 50.4297 16.0472 50.6641C15.8909 50.8984 15.7764 51.1693 15.7034 51.4766C15.6305 51.7839 15.5941 52.112 15.5941 52.4609ZM20.8362 51.9609L19.9534 52.1562C19.9534 51.6458 20.0237 51.1641 20.1644 50.7109C20.3102 50.2526 20.5211 49.8516 20.7972 49.5078C21.0784 49.1589 21.4248 48.8854 21.8362 48.6875C22.2477 48.4896 22.7191 48.3906 23.2503 48.3906C23.6826 48.3906 24.068 48.4505 24.4066 48.5703C24.7503 48.6849 25.042 48.8672 25.2816 49.1172C25.5211 49.3672 25.7034 49.6927 25.8284 50.0938C25.9534 50.4896 26.0159 50.9688 26.0159 51.5312V57H24.1253V51.5234C24.1253 51.0964 24.0628 50.7656 23.9378 50.5312C23.818 50.2969 23.6461 50.1354 23.4222 50.0469C23.1982 49.9531 22.93 49.9062 22.6175 49.9062C22.3258 49.9062 22.068 49.9609 21.8441 50.0703C21.6253 50.1745 21.4404 50.3229 21.2894 50.5156C21.1383 50.7031 21.0237 50.9193 20.9456 51.1641C20.8727 51.4089 20.8362 51.6745 20.8362 51.9609ZM29.2841 50.1719V60.25H27.4012V48.5469H29.1356L29.2841 50.1719ZM34.7919 52.6953V52.8594C34.7919 53.474 34.719 54.0443 34.5731 54.5703C34.4325 55.0911 34.2216 55.5469 33.9403 55.9375C33.6643 56.3229 33.3231 56.6224 32.9169 56.8359C32.5106 57.0495 32.0419 57.1562 31.5106 57.1562C30.9846 57.1562 30.5236 57.0599 30.1278 56.8672C29.7372 56.6693 29.4065 56.3906 29.1356 56.0312C28.8648 55.6719 28.646 55.25 28.4794 54.7656C28.3179 54.276 28.2033 53.7396 28.1356 53.1562V52.5234C28.2033 51.9036 28.3179 51.3411 28.4794 50.8359C28.646 50.3307 28.8648 49.8958 29.1356 49.5312C29.4065 49.1667 29.7372 48.8854 30.1278 48.6875C30.5184 48.4896 30.9742 48.3906 31.495 48.3906C32.0262 48.3906 32.4976 48.4948 32.9091 48.7031C33.3205 48.9062 33.6669 49.1979 33.9481 49.5781C34.2294 49.9531 34.4403 50.4062 34.5809 50.9375C34.7216 51.4635 34.7919 52.0495 34.7919 52.6953ZM32.9091 52.8594V52.6953C32.9091 52.3047 32.8726 51.9427 32.7997 51.6094C32.7268 51.2708 32.6122 50.974 32.4559 50.7188C32.2997 50.4635 32.0992 50.2656 31.8544 50.125C31.6148 49.9792 31.3257 49.9062 30.9872 49.9062C30.6539 49.9062 30.3674 49.9635 30.1278 50.0781C29.8882 50.1875 29.6877 50.3411 29.5262 50.5391C29.3648 50.737 29.2398 50.9688 29.1512 51.2344C29.0627 51.4948 29.0002 51.7786 28.9637 52.0859V53.6016C29.0262 53.9766 29.133 54.3203 29.2841 54.6328C29.4351 54.9453 29.6486 55.1953 29.9247 55.3828C30.2059 55.5651 30.5653 55.6562 31.0028 55.6562C31.3414 55.6562 31.6304 55.5833 31.87 55.4375C32.1096 55.2917 32.3049 55.0911 32.4559 54.8359C32.6122 54.5755 32.7268 54.276 32.7997 53.9375C32.8726 53.599 32.9091 53.2396 32.9091 52.8594ZM37.8491 45V57H35.9584V45H37.8491ZM43.0781 57.1562C42.4531 57.1562 41.888 57.0547 41.3828 56.8516C40.8828 56.6432 40.4557 56.3542 40.1016 55.9844C39.7526 55.6146 39.4844 55.1797 39.2969 54.6797C39.1094 54.1797 39.0156 53.6406 39.0156 53.0625V52.75C39.0156 52.0885 39.112 51.4896 39.3047 50.9531C39.4974 50.4167 39.7656 49.9583 40.1094 49.5781C40.4531 49.1927 40.8594 48.8984 41.3281 48.6953C41.7969 48.4922 42.3047 48.3906 42.8516 48.3906C43.4557 48.3906 43.9844 48.4922 44.4375 48.6953C44.8906 48.8984 45.2656 49.1849 45.5625 49.5547C45.8646 49.9193 46.0885 50.3542 46.2344 50.8594C46.3854 51.3646 46.4609 51.9219 46.4609 52.5312V53.3359H39.9297V51.9844H44.6016V51.8359C44.5911 51.4974 44.5234 51.1797 44.3984 50.8828C44.2786 50.5859 44.0938 50.3464 43.8438 50.1641C43.5938 49.9818 43.2604 49.8906 42.8438 49.8906C42.5312 49.8906 42.2526 49.9583 42.0078 50.0938C41.7682 50.224 41.5677 50.4141 41.4062 50.6641C41.2448 50.9141 41.1198 51.2161 41.0312 51.5703C40.9479 51.9193 40.9062 52.3125 40.9062 52.75V53.0625C40.9062 53.4323 40.9557 53.776 41.0547 54.0938C41.1589 54.4062 41.3099 54.6797 41.5078 54.9141C41.7057 55.1484 41.9453 55.3333 42.2266 55.4688C42.5078 55.599 42.8281 55.6641 43.1875 55.6641C43.6406 55.6641 44.0443 55.5729 44.3984 55.3906C44.7526 55.2083 45.0599 54.9505 45.3203 54.6172L46.3125 55.5781C46.1302 55.8438 45.8932 56.099 45.6016 56.3438C45.3099 56.5833 44.9531 56.7786 44.5312 56.9297C44.1146 57.0807 43.6302 57.1562 43.0781 57.1562ZM55.2863 45.625V57H53.3409V45.625H55.2863ZM58.8566 45.625V47.1875H49.8019V45.625H58.8566ZM62.5856 57.1562C61.9606 57.1562 61.3955 57.0547 60.8903 56.8516C60.3903 56.6432 59.9632 56.3542 59.6091 55.9844C59.2601 55.6146 58.9919 55.1797 58.8044 54.6797C58.6169 54.1797 58.5231 53.6406 58.5231 53.0625V52.75C58.5231 52.0885 58.6195 51.4896 58.8122 50.9531C59.0049 50.4167 59.2731 49.9583 59.6169 49.5781C59.9606 49.1927 60.3669 48.8984 60.8356 48.6953C61.3044 48.4922 61.8122 48.3906 62.3591 48.3906C62.9632 48.3906 63.4919 48.4922 63.945 48.6953C64.3981 48.8984 64.7731 49.1849 65.07 49.5547C65.3721 49.9193 65.596 50.3542 65.7419 50.8594C65.8929 51.3646 65.9684 51.9219 65.9684 52.5312V53.3359H59.4372V51.9844H64.1091V51.8359C64.0986 51.4974 64.0309 51.1797 63.9059 50.8828C63.7861 50.5859 63.6012 50.3464 63.3512 50.1641C63.1012 49.9818 62.7679 49.8906 62.3512 49.8906C62.0387 49.8906 61.7601 49.9583 61.5153 50.0938C61.2757 50.224 61.0752 50.4141 60.9137 50.6641C60.7523 50.9141 60.6273 51.2161 60.5387 51.5703C60.4554 51.9193 60.4137 52.3125 60.4137 52.75V53.0625C60.4137 53.4323 60.4632 53.776 60.5622 54.0938C60.6664 54.4062 60.8174 54.6797 61.0153 54.9141C61.2132 55.1484 61.4528 55.3333 61.7341 55.4688C62.0153 55.599 62.3356 55.6641 62.695 55.6641C63.1481 55.6641 63.5518 55.5729 63.9059 55.3906C64.2601 55.2083 64.5674 54.9505 64.8278 54.6172L65.82 55.5781C65.6377 55.8438 65.4007 56.099 65.1091 56.3438C64.8174 56.5833 64.4606 56.7786 64.0387 56.9297C63.6221 57.0807 63.1377 57.1562 62.5856 57.1562ZM70.3303 55.6562C70.6376 55.6562 70.9136 55.5964 71.1584 55.4766C71.4084 55.3516 71.609 55.1797 71.76 54.9609C71.9162 54.7422 72.0022 54.4896 72.0178 54.2031H73.7912C73.7808 54.75 73.6194 55.2474 73.3069 55.6953C72.9944 56.1432 72.5803 56.5 72.0647 56.7656C71.5491 57.026 70.9787 57.1562 70.3537 57.1562C69.7079 57.1562 69.1454 57.0469 68.6662 56.8281C68.1871 56.6042 67.7886 56.2969 67.4709 55.9062C67.1532 55.5156 66.9136 55.0651 66.7522 54.5547C66.5959 54.0443 66.5178 53.4974 66.5178 52.9141V52.6406C66.5178 52.0573 66.5959 51.5104 66.7522 51C66.9136 50.4844 67.1532 50.0312 67.4709 49.6406C67.7886 49.25 68.1871 48.9453 68.6662 48.7266C69.1454 48.5026 69.7053 48.3906 70.3459 48.3906C71.023 48.3906 71.6168 48.526 72.1272 48.7969C72.6376 49.0625 73.0386 49.4349 73.3303 49.9141C73.6272 50.388 73.7808 50.9401 73.7912 51.5703H72.0178C72.0022 51.2578 71.9241 50.9766 71.7834 50.7266C71.648 50.4714 71.4553 50.2682 71.2053 50.1172C70.9605 49.9661 70.6662 49.8906 70.3225 49.8906C69.9423 49.8906 69.6272 49.9688 69.3772 50.125C69.1272 50.276 68.9319 50.4844 68.7912 50.75C68.6506 51.0104 68.5491 51.3047 68.4866 51.6328C68.4293 51.9557 68.4006 52.2917 68.4006 52.6406V52.9141C68.4006 53.263 68.4293 53.6016 68.4866 53.9297C68.5438 54.2578 68.6428 54.5521 68.7834 54.8125C68.9293 55.0677 69.1272 55.2734 69.3772 55.4297C69.6272 55.5807 69.9449 55.6562 70.3303 55.6562ZM76.5359 45V57H74.6609V45H76.5359ZM76.2078 52.4609L75.5984 52.4531C75.6036 51.8698 75.6844 51.3307 75.8406 50.8359C76.0021 50.3411 76.226 49.9115 76.5125 49.5469C76.8042 49.1771 77.1531 48.8932 77.5594 48.6953C77.9656 48.4922 78.4161 48.3906 78.9109 48.3906C79.3276 48.3906 79.7026 48.4479 80.0359 48.5625C80.3745 48.6771 80.6661 48.862 80.9109 49.1172C81.1557 49.3672 81.3406 49.6953 81.4656 50.1016C81.5958 50.5026 81.6609 50.9922 81.6609 51.5703V57H79.7703V51.5547C79.7703 51.1484 79.7104 50.8255 79.5906 50.5859C79.476 50.3464 79.3068 50.1745 79.0828 50.0703C78.8589 49.9609 78.5854 49.9062 78.2625 49.9062C77.924 49.9062 77.6245 49.974 77.3641 50.1094C77.1089 50.2448 76.8953 50.4297 76.7234 50.6641C76.5516 50.8984 76.4214 51.1693 76.3328 51.4766C76.2495 51.7839 76.2078 52.112 76.2078 52.4609Z" fill="#000AFF"/>
</svg>
